<?xml version="1.0" encoding="UTF-8"?>
<svg width="24px" height="24px" viewBox="0 0 24 24" version="1.1" xmlns="http://www.w3.org/2000/svg" xmlns:xlink="http://www.w3.org/1999/xlink">
    <!-- Generator: Sketch 52.2 (67145) - http://www.bohemiancoding.com/sketch -->
    <title>Artboard</title>
    <desc>Created with Sketch.</desc>
    <g id="Artboard" stroke="none" stroke-width="1" fill="none" fill-rule="evenodd">
        <g id="ic_mod_mute_audio">
            <g id="Group-4" opacity="0" fill="#F0F4F9">
                <rect id="Rectangle-3" x="0" y="0" width="24" height="24"></rect>
            </g>
            <path d="M12.9889541,8.58473304 L12.9889541,7 C12.9889541,6.44771525 12.5410475,6 11.9885267,6 C11.5600501,6 11.1944876,6.26925188 11.0519421,6.64772102 L9.59456642,5.19034535 C10.1425536,4.46717133 11.0109599,4 11.9885267,4 C13.6460891,4 14.989809,5.34314575 14.989809,7 L14.989809,10.5855879 L12.9889541,8.58473304 Z M10.9880993,9.58729482 L10.9880993,11 C10.9880993,11.5522847 11.4360059,12 11.9885267,12 C12.3693517,12 12.7004781,11.7873059 12.8694985,11.4742769 L14.3021029,12.9111324 C13.751604,13.5762327 12.9195746,14 11.9885267,14 C10.3309643,14 8.9872444,12.6568542 8.9872444,11 L8.9872444,7.58050261 L10.9880993,9.58729482 Z M15.7184455,14.3316779 L17.1325404,15.749969 C16.0668653,16.9024983 14.6183806,17.6961395 12.9889541,17.9291111 L12.9889541,20 L10.9880993,20 L10.9880993,17.9291111 C7.92109774,17.4905984 5.49515404,15.0656912 5.05645385,12 L7.08645041,12 C7.54991876,14.2822403 9.56853485,16 11.9885267,16 C13.4707917,16 14.802474,15.3555543 15.7184455,14.3316779 Z M16.7946962,12.3904751 C16.831728,12.2623578 16.8637716,12.1321248 16.890603,12 L18.9205995,12 C18.8227356,12.6838852 18.6259798,13.3358828 18.3452762,13.9410551 L16.7946962,12.3904751 Z" id="Muted-Icon-Small" fill="#8692A0" fill-rule="nonzero"></path>
            <rect id="Rectangle" fill="#FE3A68" transform="translate(11.954951, 11.954951) rotate(-45.000000) translate(-11.954951, -11.954951) " x="10.9549514" y="1.70495099" width="2" height="20.5"></rect>
        </g>
    </g>
</svg>