<svg xmlns="http://www.w3.org/2000/svg" width="24" height="24" viewBox="0 0 24 24">
    <g fill="none" fill-rule="evenodd">
        <path d="M0 0h24v24H0z"/>
        <path fill="#8692A0" d="M13 17.93V19A.997.997 0 0 1 12 20c-.552 0-1-.443-1-.999v-1.072A7.002 7.002 0 0 1 5 11h1.75a5.25 5.25 0 0 0 10.5 0H19a7.002 7.002 0 0 1-6 6.93zM9 7c0-1.657 1.347-3 3-3 1.657 0 3 1.349 3 3v4c0 1.657-1.347 3-3 3-1.657 0-3-1.349-3-3V7zm2-.01v4.02a1 1 0 0 0 1 .99c.556 0 1-.444 1-.99V6.99A1 1 0 0 0 12 6c-.556 0-1 .444-1 .99z"/>
    </g>
</svg>
