<svg xmlns="http://www.w3.org/2000/svg" width="24" height="24" viewBox="0 0 24 24">
    <g fill="none" fill-rule="evenodd">
        <path d="M0 0h24v24H0z"/>
        <path fill="#8692A0" d="M17.133 15.75a7.045 7.045 0 0 1-.022.023l2.892 2.911-1.409 1.28-3-2.962a6.96 6.96 0 0 1-2.605.927V20h-2v-2.07A7.006 7.006 0 0 1 5.055 12h2.03a5.003 5.003 0 0 0 7.018 3.532l-1.597-1.577A3 3 0 0 1 8.987 11h.526L4 5.559l1.476-1.5 7.383 7.434a.998.998 0 0 0 .01-.019l1.433 1.437-.015.019 1.413 1.422.018-.02 1.415 1.418zm1.212-1.809l-1.55-1.55c.037-.129.069-.259.096-.391h2.03a6.948 6.948 0 0 1-.576 1.941zm-3.355-3.355L9.595 5.19A3 3 0 0 1 14.99 7v3.586z"/>
    </g>
</svg>
