<?xml version="1.0" standalone="no"?>
<!DOCTYPE svg PUBLIC "-//W3C//DTD SVG 20010904//EN"
 "http://www.w3.org/TR/2001/REC-SVG-20010904/DTD/svg10.dtd">
<svg version="1.0" xmlns="http://www.w3.org/2000/svg"
 width="20" height="20" viewBox="0 0 500.000000 500.000000"
 preserveAspectRatio="xMidYMid meet">

<g transform="translate(0.000000,500.000000) scale(0.100000,-0.100000)"
fill="#000000" stroke="none">
<path d="M3449 4987 c-75 -21 -129 -60 -236 -169 -116 -119 -142 -165 -143
-251 0 -63 17 -113 55 -163 14 -18 25 -41 25 -51 0 -11 -188 -206 -455 -473
l-455 -455 -393 -5 c-474 -6 -442 2 -594 -153 -115 -117 -138 -162 -138 -267
0 -129 -4 -123 421 -550 l384 -385 -946 -945 c-520 -520 -952 -958 -961 -974
-43 -81 52 -176 133 -133 16 9 454 441 974 961 l945 946 385 -384 c432 -431
420 -422 560 -420 62 0 85 5 129 28 77 40 214 180 249 253 l27 58 3 370 c1
204 5 381 8 395 7 33 902 930 927 930 10 0 33 -11 51 -25 50 -38 100 -55 164
-55 88 0 139 31 265 158 128 131 161 190 162 292 0 133 31 97 -668 797 -510
511 -640 636 -678 652 -61 27 -143 34 -200 18z m734 -806 l607 -606 0 -49 c0
-49 -1 -50 -102 -152 -56 -57 -110 -104 -120 -104 -10 0 -38 15 -62 34 -78 60
-171 68 -261 24 -44 -22 -926 -894 -976 -965 -54 -77 -59 -121 -59 -511 0
-396 3 -377 -77 -453 -68 -65 -92 -79 -138 -79 -40 0 -45 5 -857 818 -798 797
-818 818 -818 855 0 50 12 71 74 135 82 86 59 82 458 82 390 0 434 5 511 59
72 50 943 932 965 976 43 88 34 185 -24 261 -19 24 -34 52 -34 62 0 25 190
211 225 221 16 4 41 5 55 3 17 -3 220 -199 633 -611z"/>
</g>
</svg>
