<?xml version="1.0" standalone="no"?>
<!DOCTYPE svg PUBLIC "-//W3C//DTD SVG 20010904//EN"
 "http://www.w3.org/TR/2001/REC-SVG-20010904/DTD/svg10.dtd">
<svg version="1.0" xmlns="http://www.w3.org/2000/svg"
 width="20" height="20" viewBox="0 0 500.000000 500.000000"
 preserveAspectRatio="xMidYMid meet">

<g transform="translate(0.000000,500.000000) scale(0.100000,-0.100000)"
fill="#BAB8B8" stroke="none">
<path d="M3353 4955 c-96 -101 -148 -264 -124 -392 7 -36 19 -79 27 -94 23
-45 18 -66 -23 -93 -21 -13 -85 -66 -143 -117 -58 -52 -121 -108 -141 -124
-20 -17 -96 -82 -170 -145 -74 -64 -165 -142 -204 -175 -81 -67 -172 -146
-261 -225 -34 -30 -92 -80 -129 -110 -114 -92 -227 -190 -292 -253 l-61 -60
-52 38 c-142 104 -343 140 -524 95 -102 -26 -166 -61 -244 -135 -49 -47 -64
-68 -69 -97 -12 -76 26 -122 383 -469 65 -64 155 -154 199 -201 44 -46 127
-128 184 -182 l105 -97 -390 -388 c-578 -576 -770 -781 -1131 -1209 -45 -53
-82 -101 -83 -106 0 -4 -43 -60 -95 -123 -84 -103 -95 -120 -95 -155 0 -82 53
-138 132 -138 27 0 54 5 61 10 97 81 249 200 254 200 8 0 47 33 234 195 51 44
134 115 183 157 173 148 304 273 823 791 l432 430 368 -368 c202 -202 387
-383 410 -402 86 -70 140 -64 226 25 118 124 170 293 147 477 -12 100 -43 182
-100 270 -45 69 -45 69 -27 87 21 21 175 196 262 298 44 51 103 119 130 150
28 30 84 96 125 144 41 49 111 130 155 181 44 50 143 165 220 256 77 90 178
207 225 260 47 53 90 105 96 115 11 18 13 18 80 -4 38 -12 92 -25 119 -28 109
-13 252 39 348 126 44 41 50 51 54 96 5 46 2 53 -34 99 -38 47 -1033 1048
-1305 1313 l-126 122 -58 0 c-55 0 -59 -2 -101 -45z"/>
</g>
</svg>
