<?xml version="1.0" encoding="UTF-8" standalone="no"?>
<svg width="16px" height="10px" viewBox="0 0 16 10" version="1.1" xmlns="http://www.w3.org/2000/svg" xmlns:xlink="http://www.w3.org/1999/xlink">
    <!-- Generator: Sketch 42 (36781) - http://www.bohemiancoding.com/sketch -->
    <title>Group 6@1x</title>
    <desc>Created with Sketch.</desc>
    <defs></defs>
    <g id="AZUL-92_Side-Panel---Moderator-individual-Mute" stroke="none" stroke-width="1" fill="none" fill-rule="evenodd">
        <g id="AZUL-92_UIs_Specs" transform="translate(-219.000000, -188.000000)">
            <g id="Group-6" transform="translate(215.000000, 181.000000)">
                <g id="video">
                    <rect id="Rectangle-3" fill="#F0F4F9" opacity="0" x="0" y="0" width="24" height="24"></rect>
                    <path d="M4,8.99961498 C4,7.89525812 4.90017617,7 5.99201702,7 L13.007983,7 C14.1081436,7 15,7.88743329 15,8.99961498 L15,15.000385 C15,16.1047419 14.0998238,17 13.007983,17 L5.99201702,17 C4.8918564,17 4,16.1125667 4,15.000385 L4,8.99961498 Z M6,9 L6,15 L13,15 L13,9 L6,9 Z M16,10 L18.3960948,8.2029289 C19.2819072,7.53856961 20,7.88743329 20,8.99961498 L20,15.000385 C20,16.1047419 19.2848802,16.4636601 18.3960948,15.7970711 L16,14.0000001 L16,10 Z" id="Camera-Icon-Small" fill="#8692A0"></path>
                </g>
            </g>
        </g>
    </g>
</svg>