<?xml version="1.0" encoding="UTF-8" standalone="no"?>
<svg width="17px" height="16px" viewBox="0 0 17 16" version="1.1" xmlns="http://www.w3.org/2000/svg" xmlns:xlink="http://www.w3.org/1999/xlink">
    <!-- Generator: Sketch 42 (36781) - http://www.bohemiancoding.com/sketch -->
    <title>video_off_1@1x</title>
    <desc>Created with Sketch.</desc>
    <defs></defs>
    <g id="AZUL-92_Side-Panel---Moderator-individual-Mute" stroke="none" stroke-width="1" fill="none" fill-rule="evenodd">
        <g id="AZUL-92_UIs_Specs" transform="translate(-326.000000, -185.000000)">
            <g id="video_off_1" transform="translate(323.000000, 181.000000)">
                <g id="Group-67">
                    <rect id="Rectangle-3" fill="#F0F4F9" opacity="0" x="0" y="0" width="24" height="24"></rect>
                    <path d="M18.9721589,18.67638 L17.5784519,20.0005762 L14.2022754,16.5755705 C13.8684382,16.8276053 13.454218,16.977025 13.007983,16.977025 L5.99201702,16.977025 C4.8918564,16.977025 4,16.0903045 4,14.9790162 L4,8.98306621 C4,8.29856019 4.34638667,7.69445047 4.87003906,7.334391 L3.00982961,5.49819169 L4.27441334,4.21434276 L4.44653679,3.99942382 L4.46640954,4.01942161 L4.48610724,3.99942382 L5.22285657,4.74112233 L5.19877169,4.76704649 L18.9721589,18.67638 Z M15,11.5626953 L13,9.56269527 L13,8.98345092 L12.4207557,8.98345092 L10.4223621,6.98505741 L13.007983,6.98505741 C14.1081436,6.98505741 15,7.87177788 15,8.98306621 L15,11.5626953 Z M19.4947228,16.057418 L16,12.5626953 L16,9.98264768 L18.3960948,8.18702007 C19.2819072,7.52319442 20,7.87177788 20,8.98306621 L20,14.9790162 C20,15.5536235 19.8060899,15.9262621 19.4947228,16.057418 Z M6.54066208,8.98345092 L6,8.98345092 L6,14.9786314 L12.6142356,14.9786314 L6.54066208,8.98345092 Z" id="OFF-Camera-Icon-Small" fill="#8692A0"></path>
                </g>
            </g>
        </g>
    </g>
</svg>